<svg width="18" height="17" viewBox="0 0 18 17" fill="none" xmlns="http://www.w3.org/2000/svg">
<g clip-path="url(#clip0_103_9)">
<path d="M9 1.53213C11.2695 1.53213 11.5387 1.54062 12.4354 1.58171C14.7389 1.68654 15.8149 2.7795 15.9197 5.066C15.9608 5.96204 15.9686 6.23121 15.9686 8.50071C15.9686 10.7709 15.9601 11.0394 15.9197 11.9354C15.8142 14.2198 14.741 15.3149 12.4354 15.4197C11.5387 15.4608 11.2709 15.4693 9 15.4693C6.7305 15.4693 6.46133 15.4608 5.56529 15.4197C3.25612 15.3142 2.18583 14.2163 2.081 11.9347C2.03992 11.0387 2.03142 10.7702 2.03142 8.5C2.03142 6.2305 2.04063 5.96204 2.081 5.06529C2.18654 2.7795 3.25967 1.68583 5.56529 1.581C6.46204 1.54063 6.7305 1.53213 9 1.53213ZM9 0C6.69154 0 6.40254 0.00991667 5.49587 0.051C2.40896 0.192667 0.693375 1.90542 0.551708 4.99517C0.509917 5.90254 0.5 6.19154 0.5 8.5C0.5 10.8085 0.509917 11.0982 0.551 12.0048C0.692667 15.0917 2.40542 16.8073 5.49517 16.949C6.40254 16.9901 6.69154 17 9 17C11.3085 17 11.5982 16.9901 12.5048 16.949C15.5889 16.8073 17.3087 15.0946 17.4483 12.0048C17.4901 11.0982 17.5 10.8085 17.5 8.5C17.5 6.19154 17.4901 5.90254 17.449 4.99587C17.3102 1.91179 15.5953 0.193375 12.5055 0.0517083C11.5982 0.00991667 11.3085 0 9 0ZM9 4.13525C6.58954 4.13525 4.63525 6.08954 4.63525 8.5C4.63525 10.9105 6.58954 12.8655 9 12.8655C11.4105 12.8655 13.3648 10.9112 13.3648 8.5C13.3648 6.08954 11.4105 4.13525 9 4.13525ZM9 11.3333C7.43529 11.3333 6.16667 10.0654 6.16667 8.5C6.16667 6.93529 7.43529 5.66667 9 5.66667C10.5647 5.66667 11.8333 6.93529 11.8333 8.5C11.8333 10.0654 10.5647 11.3333 9 11.3333ZM13.5376 2.94313C12.9737 2.94313 12.5169 3.4 12.5169 3.96312C12.5169 4.52625 12.9737 4.98312 13.5376 4.98312C14.1007 4.98312 14.5569 4.52625 14.5569 3.96312C14.5569 3.4 14.1007 2.94313 13.5376 2.94313Z" fill="#9D968D"/>
</g>
<defs>
<clipPath id="clip0_103_9">
<rect width="18" height="17" fill="white"/>
</clipPath>
</defs>
</svg>
