<svg width="855" height="136" viewBox="0 0 855 136" fill="none" xmlns="http://www.w3.org/2000/svg">
<path d="M764.58 39.55C765.83 36.32 765.53 31.43 765.45 29.74C765.37 28.05 764.23 28 762.08 28C759.733 28.2824 757.419 28.7914 755.17 29.52C753.01 30.06 750.92 30.71 749.72 30.95C747 31.53 744.03 33.61 745 35.37C745.97 37.13 749.38 34.9 753.09 33.93C753.82 33.69 754.53 33.53 755.17 33.37C757.92 32.64 760.17 32.16 760.17 32.16C759.712 34.1916 759.481 36.2675 759.48 38.35C759.72 40.61 763.24 42.85 764.61 39.55" fill="black"/>
<path d="M250 61.7C245.27 64.42 242 66.6 242 58.09C242 49.58 245.52 39.78 237.42 38.67C233.17 38.09 228.2 39.38 223.42 41.62C219.002 43.781 214.901 46.5365 211.23 49.81C204.14 56.2 187.16 62.87 175.44 59.23C175.245 59.164 175.066 59.0583 174.914 58.9197C174.763 58.7811 174.641 58.6126 174.557 58.4248C174.474 58.2369 174.43 58.0338 174.429 57.8282C174.427 57.6225 174.469 57.4189 174.55 57.23C178.25 47.86 181.55 42.57 181.55 39.87C181.55 37.17 176.25 36.68 172.65 37.97C169.291 39.6454 166.021 41.4912 162.85 43.5C158.09 46.4 151.95 51.1 145.14 55.72C132.55 64.25 124.83 66.46 121.66 63.09C120.84 62.22 120.22 61.24 121.16 60.49C132.79 51.22 138.48 44.24 133.06 40.05C128.34 36.42 115.95 36.92 107.13 39.74C106.39 39.98 105.69 40.24 105.02 40.51C104.804 40.6013 104.569 40.6384 104.335 40.6182C104.101 40.5979 103.876 40.5208 103.679 40.3937C103.482 40.2665 103.319 40.0931 103.204 39.8886C103.089 39.684 103.026 39.4545 103.02 39.22C102.69 35.62 95.69 38.35 92.73 40.13C89.35 42.24 63.68 54.37 53 57.64C42.32 60.91 21 67.77 15 63C9.00003 58.23 26.5 42.58 32.2 38C37.9 33.42 57.2 20.32 72.58 15.36C87.96 10.4 95 9.42001 97.06 12.05C99.12 14.68 94.16 21.7 86.55 27.88C78.94 34.06 71.1 38.56 63.73 39.51C55.26 40.6 65.73 33.21 75.53 28.31C80.32 25.93 78.45 19.24 69.05 25.2C69.05 25.2 51.23 33.82 51.55 42.58C51.84 50.58 74.55 44.84 86.33 36.09C91.6498 32.4628 96.2792 27.9147 100 22.66C108.71 10 102.27 7.30001 97.78 6.00001C89.78 3.72001 68.09 5.59001 39.56 24.08C28.466 31.3309 18.4649 40.1299 9.86003 50.21C7.66003 52.87 6.54003 57.32 6.34003 59.51V61.19C6.59003 63.85 8.04003 66.01 10.52 68.09C23.13 78.78 61.72 60.35 77.9 53.77C78.1349 53.6835 78.3879 53.6575 78.6354 53.6946C78.883 53.7316 79.1173 53.8304 79.3166 53.9819C79.5159 54.1334 79.6738 54.3326 79.7758 54.5612C79.8778 54.7899 79.9205 55.0405 79.9 55.29C79.31 65.12 85.67 66.61 91.05 67.42C96.5107 67.891 102.004 67.019 107.05 64.88C108.434 64.4097 109.861 64.0748 111.31 63.88C111.624 63.7984 111.956 63.8228 112.254 63.9494C112.552 64.076 112.801 64.2977 112.96 64.58C121.96 81.43 142.9 63.84 148.51 60.26C152.36 57.8 158.12 53.37 162.77 50.64L164.77 49.43C165.041 49.2305 165.372 49.128 165.708 49.1392C166.045 49.1503 166.368 49.2744 166.626 49.4915C166.883 49.7086 167.06 50.006 167.128 50.3359C167.196 50.6657 167.151 51.0089 167 51.31L166.29 53.07C166.173 53.3665 165.965 53.6177 165.695 53.7869C165.425 53.9561 165.108 54.0343 164.79 54.01C164.124 53.966 163.456 53.966 162.79 54.01C159.25 54.19 154.03 55.4 153.79 61.72C153.48 70.48 157.24 73.04 162.79 71.19C163.292 71.0178 163.777 70.8002 164.24 70.54C168.48 68.68 170.13 66.39 170.76 65.06C170.909 64.7603 171.155 64.52 171.459 64.3783C171.762 64.2366 172.104 64.202 172.43 64.28C182.253 66.3297 192.428 65.9486 202.07 63.17C202.279 63.1037 202.5 63.0843 202.717 63.1131C202.934 63.1418 203.142 63.2182 203.326 63.3366C203.511 63.455 203.667 63.6126 203.783 63.7981C203.899 63.9836 203.974 64.1926 204 64.41C205 72.07 214.63 71.6 223.41 67.81C226.327 66.5807 229.076 64.9845 231.59 63.06C231.773 62.9221 231.986 62.828 232.211 62.7851C232.436 62.7421 232.669 62.7514 232.89 62.8123C233.111 62.8731 233.315 62.9839 233.487 63.1361C233.659 63.2882 233.793 63.4777 233.88 63.69C234.375 64.8215 235.11 65.8322 236.034 66.6523C236.957 67.4723 238.048 68.0823 239.23 68.44C246.29 70.92 254.81 66.6 257.45 63.62C258.021 63.0835 258.415 62.3859 258.58 61.62V61.05C258.18 59.22 253.58 59.62 249.99 61.7M107.09 59.59C99.64 62.07 91.51 63.35 88.54 60.14C85.17 56.52 91.98 49.62 94.71 47.14C94.984 46.892 95.3404 46.7546 95.71 46.7546C96.0796 46.7546 96.436 46.892 96.71 47.14C100.12 50.14 102.83 48.53 107.1 46.53C108.23 46.05 109.44 45.53 110.73 45.1C117.73 42.62 125.66 41.49 126.45 44.1C127.24 46.71 124.21 52.18 115.86 56.1C113.02 57.4446 110.094 58.5972 107.1 59.55M164.1 64.81C163.338 65.3931 162.512 65.8895 161.64 66.29C161.419 66.404 161.172 66.4607 160.923 66.4548C160.674 66.4489 160.43 66.3806 160.214 66.2563C159.999 66.132 159.817 65.9555 159.687 65.743C159.557 65.5305 159.483 65.2888 159.47 65.04C159.38 63.37 159.47 61.2 160.15 60.35C162.1 58.09 163.84 60.35 164.53 60.88C164.958 61.2398 165.3 61.6908 165.53 62.2C165.53 62.2 165.95 63.29 164.07 64.81M228.89 54.74C227.268 57.0283 225.437 59.1608 223.42 61.11C221.644 62.7909 219.511 64.0488 217.18 64.79C212.18 66.06 212.02 64.56 213.18 62.14C214.925 58.0518 217.492 54.3657 220.72 51.31C220.72 51.31 221.87 50.26 223.45 48.98C225.71 47.13 229 44.71 231.34 44.16C232.85 42.79 234.95 43.16 233.98 45.29C232.682 48.6331 230.983 51.8063 228.92 54.74" fill="black"/>
<path d="M846.38 49.39C849.27 45.63 849.49 39.52 841.72 40.08C838.11 40.33 832.26 42.97 826.32 45.86C819.24 49.47 813.79 52.39 808.89 54.63C803.32 57.17 791.78 63.84 786.25 61.84C790.65 57.5 798.25 54.29 799.89 52.6C801.53 50.91 800.53 48.2 796.78 48.2C793.03 48.2 781.68 55.2 776.44 57.5C771.2 59.8 760.72 61.29 760.72 61.29C761.93 57.18 765.94 54.86 767.72 52.84C769.5 50.82 765.72 49.08 761.62 50.52C760.17 51.08 757.85 52.29 755.19 53.64C750.71 55.97 745.26 58.97 741.08 60.39C734.4 62.71 716.97 67.39 716.68 63.61C716.39 59.83 724.21 55.18 730.02 52.61C735.83 50.04 737.31 46.53 732.63 46.53C727.95 46.53 719 51.74 713.78 53.43L707.9 55.51C705.5 56.37 702.68 57.36 699.73 58.32L699.83 58.15C694.16 60 688 61.73 683 62.26C676.63 63.01 673.9 62.73 673.66 61.07C673.59 60.07 674.33 58.62 675.66 56.63C676.142 55.955 676.674 55.3166 677.25 54.72H677.19C681.52 50.47 689.47 48.49 697.51 44.93C699.99 43.74 703.77 41.93 707.84 39.82C718.38 34.51 731.37 27.21 734.34 23.43C738.34 18.21 736.6 15 729.07 15C724.25 15 715.65 18.37 707.84 22.08C704.008 23.8901 700.27 25.8926 696.64 28.08C688.45 33 672.26 48.7 672.26 48.7C665.81 50.84 659.74 52.87 654.14 54.7C654.088 54.7591 654.041 54.8226 654 54.89C646 57.44 639.09 59.52 633.64 60.74C629.72 61.55 625.16 62.68 620.72 63.4C614.72 64.27 609.24 64.4 606.42 61.87C611.315 59.6925 616.088 57.2523 620.72 54.56C626.263 51.4628 631.646 48.0885 636.85 44.45C642.09 40.68 641.17 36.66 632.85 35.79C629.4 35.37 625 36.97 620.74 39.23C615.639 41.9179 610.845 45.1501 606.44 48.87C603.21 51.8287 600.202 55.0206 597.44 58.42C585.24 59.53 575.93 59 572.72 54.08C577.36 50.55 584.33 47.08 587.01 45.08C589.69 43.08 581.72 39.23 577.14 45.08C575.93 35.79 564.93 36.9 556.82 39.79C553.45 41.1 550.87 42.37 548.71 43.32C545.66 44.69 543.44 45.42 540.86 44.32C536.52 42.24 528.65 53.79 520.52 56.32C513.13 58.74 496.14 64.03 488.09 63.14C487.379 63.126 486.676 62.9907 486.01 62.74C479.35 60.42 477.27 57.53 483.14 52.32C484.942 50.7012 486.598 48.9277 488.09 47.02C490.09 44.37 490.59 42.37 488.09 42.11H486.89C481.04 42.76 476.48 51.11 469.48 53.76C462.48 56.41 445.97 64.76 440.2 64.76C434.43 64.76 429.1 62.18 435.84 55.76C442.58 49.34 447.72 45.88 449.4 43.55C451.08 41.22 448.59 38.67 442.5 41.55C436.41 44.43 424.13 48.45 411.92 52.77C399.71 57.09 389.62 60.88 382.64 60.88C375.66 60.88 378.75 49.63 382.22 47.05C385.69 44.47 395.53 37.17 401.08 34C406.63 30.83 406.85 31.34 411.83 32C416.81 32.66 419.94 25 406.61 25.89C417.85 14.81 422.49 4.7 408.32 6.15C396.09 7.3 386.48 9 365 18.71C361.47 20.22 357.62 22.08 353.44 24.09C339.56 30.75 324.14 41.51 316.04 51.09C311.93 55.9 309.28 59.75 308.8 62.88V64.7C309.22 66.78 310.9 68.39 314.25 69.6C323.03 72.81 338.91 67.28 350.88 60.94C357.15 57.55 361.88 54.94 365 53.23C367.73 51.62 369.1 50.73 369.1 50.73C369.1 50.73 366.55 70.67 384 68.67C401.45 66.67 427.07 54.05 427.07 54.05C427.07 54.05 417.85 65.61 429.07 69.14C440.29 72.67 455.5 65.61 471.77 58.39C471.55 64.58 479.96 67.55 488.06 67.79C491.172 67.896 494.283 67.5593 497.3 66.79C506.3 64.15 519.94 61.57 519.94 61.57C523.41 70.81 543.41 67.36 543.41 67.36C538.18 69.36 525.09 80.36 525.09 80.36C509.18 84.52 498.77 88.21 488.09 93.99C483.489 96.4832 479.023 99.217 474.71 102.18C458.18 113.18 455.53 119.27 454.08 122.74C452.63 126.21 453.82 131.16 462.82 129.74C468.19 128.87 478.72 123.4 488.09 117.74C493.457 114.534 498.618 110.994 503.54 107.14C511.96 100.14 531.86 84.5 539.65 77.84C541.87 75.97 545.08 73.42 548.71 70.76C557.71 64.02 568.71 56.31 568.71 56.31C575.02 61.62 582.71 66.2 598.41 63.31C602.25 67.89 611.91 68.44 620.73 67.71C625.297 67.3709 629.831 66.6755 634.29 65.63C642.92 63.63 664.8 57.02 665.02 56.95C664.95 57.56 664.91 58.15 664.9 58.71C664.69 67.28 671.4 68.79 680.37 67.97C689.77 67.07 707.17 61.78 707.89 61.62C706.95 64.26 706.95 66.36 707.89 67.97C709.75 70.86 714.8 71.65 722.75 69.97C734.96 67.41 750.62 61.86 750.62 61.86C751.612 63.6454 753.24 64.9915 755.18 65.63C760.73 67.89 769.42 66.44 777.26 63.63C783.69 70.63 801.33 63.86 801.33 63.86C806.96 69 821.67 64.36 826.33 62.67L827.75 62.18C827.043 63.6803 826.564 65.278 826.33 66.92V68.6C826.72 72.29 829.6 74.29 832.73 74.94C837.41 75.84 843.41 74.05 840.28 72.05C837.15 70.05 832.43 70.6 834.75 65.63C837.07 60.66 843.4 53.18 846.38 49.39ZM707.88 27.25C714.79 23.96 721.88 21.64 725.48 21.64C723.48 24.14 715.77 29.35 707.88 33.93C700.76 38.09 693.45 41.7 690.41 42.2C691 37.38 699.31 31.51 707.88 27.25ZM620.72 44.66C625.38 42.34 630.03 40.97 630.13 41.66C630.35 43.92 625.53 46.9 620.72 49.21C617.676 50.6992 614.559 52.0342 611.38 53.21C611.82 50.11 616.3 46.92 620.72 44.66ZM370.16 41.91C368.89 42.64 367.11 43.59 365.03 44.72C352.5 51.3 328.51 63.18 324.17 63.18C319.12 63.18 320.72 58.44 325.44 52.83C330.16 47.22 351.05 33.38 362.79 27.3C363.5 26.9 364.21 26.58 365.03 26.17C383.03 17.43 402.61 11.32 406.38 11.08C410.38 10.75 409.33 12.13 405.58 15.82C401.83 19.51 379.24 36.85 370.16 41.91ZM488.08 108.8C485.94 110.33 484.08 111.7 482.53 112.9C476.13 117.9 465.84 124.22 463.35 123.41C460.86 122.6 463.94 119.25 468.5 115.3C472.39 111.93 480.71 104.4 488.08 100.06C489.371 99.2823 490.707 98.581 492.08 97.96C500.01 94.43 513.41 88.25 513.65 89.53C504.4 97.15 494.9 103.83 488.08 108.8ZM548.7 59.26C546.4 60.2757 543.965 60.9496 541.47 61.26C533.47 61.89 529.93 62.26 530.23 59.97C530.53 57.68 540.85 52.91 542.46 51.62C543.81 50.49 544.68 51.29 548.7 50.08C549.386 49.8016 550.087 49.5612 550.8 49.36C556.59 47.12 564.92 41.65 567.18 42.62C563.15 50.11 555.62 56.21 548.7 59.26ZM828.23 57C824.61 58.67 819.82 60.69 816.86 61.13C816.494 61.1943 816.118 61.1116 815.813 60.9C815.508 60.6885 815.298 60.365 815.23 60C815.01 58.68 817.42 55.61 825.23 51.4C828.366 49.7207 831.634 48.2994 835 47.15C838.86 45.55 840.13 45.55 837.89 49.08C835.434 52.534 832.099 55.2684 828.23 57Z" fill="black"/>
</svg>
